<?xml version="1.0" encoding="UTF-8"?>
<svg version="1.1" xmlns="http://www.w3.org/2000/svg" width="432" height="432">
<path d="M0 0 C142.56 0 285.12 0 432 0 C432 142.56 432 285.12 432 432 C289.44 432 146.88 432 0 432 C0 289.44 0 146.88 0 0 Z " fill="#8BFDFA" transform="translate(0,0)"/>
<path d="M0 0 C142.56 0 285.12 0 432 0 C432 64.68 432 129.36 432 196 C427.71 199.96 423.42 203.92 419 208 C413.88869621 212.98024472 409.03580659 217.95640937 404.5078125 223.46875 C403 225 403 225 400 226 C399.99945523 225.05116849 399.99891047 224.10233698 399.99834919 223.124753 C399.98396027 200.04841824 399.94097066 176.97227226 399.86790943 153.89604664 C399.83324131 142.73658368 399.80790151 131.57724448 399.80444336 120.41772461 C399.80140601 110.69222766 399.78094631 100.96695101 399.73947543 91.24153918 C399.71812302 86.09090189 399.70555636 80.94057798 399.71384621 75.78989601 C399.7213721 70.9429484 399.7056231 66.0966365 399.67193985 61.24980545 C399.66368893 59.47004889 399.66397737 57.69022932 399.67340279 55.91047859 C399.68499591 53.48109623 399.66595356 51.0538074 399.63923645 48.62458801 C399.64990971 47.91932679 399.66058297 47.21406556 399.67157966 46.48743278 C399.60265501 43.13120356 398.99296155 40.98755885 397.33826828 38.06272507 C391.89835086 34.70138527 386.18563698 35.31570853 379.94847107 35.37181091 C378.4826936 35.36676603 377.01692229 35.35953764 375.55116516 35.35031277 C371.52241877 35.3313551 367.49427801 35.34364362 363.46554673 35.3610357 C359.12124472 35.37438797 354.77703259 35.35898039 350.43273926 35.34721375 C341.92222544 35.32881721 333.41194095 35.33736266 324.90143424 35.35530197 C317.98652481 35.3693164 311.07167771 35.37322327 304.15675545 35.3698597 C303.17333455 35.36938225 302.18991365 35.36890481 301.17669212 35.3684129 C299.1790277 35.36738659 297.18136329 35.36633124 295.1836989 35.36524714 C277.51247532 35.35667612 259.84136262 35.37336861 242.17016602 35.40307617 C225.01321761 35.43191892 207.8564289 35.43899556 190.69946289 35.42358398 C172.02618443 35.40683338 153.35298182 35.40277562 134.67970139 35.42029434 C132.68961053 35.42213878 130.69951966 35.42397351 128.70942879 35.42579842 C127.73020743 35.42671051 126.75098607 35.4276226 125.74209134 35.42856232 C118.83293009 35.43417448 111.92380579 35.43085426 105.01464653 35.42425346 C96.59842252 35.41653223 88.18235587 35.42322923 79.76616364 35.4484285 C75.46996442 35.46095124 71.17401055 35.46703662 66.8778019 35.45588684 C62.94792725 35.44588014 59.01854292 35.45422703 55.0887282 35.47746802 C53.6641943 35.48264717 52.23961683 35.48102988 50.81510168 35.47207337 C48.88421669 35.46093944 46.95323196 35.47666004 45.02239132 35.49384212 C43.41112658 35.49562935 43.41112658 35.49562935 41.76731104 35.49745268 C38.22703381 36.14037168 37.06648002 37.07284192 35 40 C34.40333175 42.8280456 34.40333175 42.8280456 34.49942875 46.01236057 C34.48470731 47.87121477 34.48470731 47.87121477 34.46968848 49.76762158 C34.47902789 51.14509678 34.48874346 52.52256948 34.49879456 53.90003967 C34.49490301 55.36153866 34.48926374 56.82303386 34.48202366 58.28452009 C34.46722994 62.30598209 34.47747321 66.3270541 34.49176037 70.34850371 C34.50284406 74.6832478 34.49093626 79.01793601 34.48191833 83.35267639 C34.46796641 91.84625397 34.47555626 100.33968315 34.49059392 108.83325369 C34.50742993 118.71770039 34.50424684 128.60210987 34.50049984 138.48656648 C34.49461776 156.1184344 34.50880688 173.75023096 34.53344727 191.38208008 C34.5573727 208.5041776 34.56445055 225.62617978 34.55395508 242.74829102 C34.54255489 261.37979214 34.54060438 280.01124914 34.55505317 298.64274973 C34.55657907 300.62806379 34.55809942 302.61337786 34.55961418 304.59869194 C34.560372 305.57558489 34.56112981 306.55247784 34.56191059 307.5589736 C34.56666009 314.45456044 34.56479729 321.35012763 34.56054878 328.24571419 C34.55563048 336.64439804 34.56156911 345.04299162 34.58144308 353.44165475 C34.59133857 357.72958683 34.59639598 362.01738123 34.58855057 366.30532074 C34.58152284 370.22646936 34.58822959 374.14733947 34.6061542 378.06845122 C34.61021766 379.49098134 34.60916725 380.91353662 34.60263533 382.33605755 C34.59454567 384.26185662 34.60653995 386.18770936 34.61968327 388.11348057 C34.6207124 389.18554109 34.62174152 390.25760162 34.62280184 391.36214882 C34.79564547 394.01193768 34.79564547 394.01193768 36.31426597 395.84385991 C39.13843836 397.78078404 42.30628099 397.4205457 45.61186218 397.39872742 C46.78564485 397.40869766 46.78564485 397.40869766 47.98314029 397.41886932 C50.61348432 397.4375686 53.24337624 397.43488942 55.8737793 397.43237305 C57.75597785 397.44138599 59.6381705 397.45171205 61.52035522 397.46325684 C66.63779833 397.49090793 71.75513031 397.50012234 76.87263846 397.50611091 C82.2178565 397.51547352 87.56299083 397.54167513 92.90815735 397.56611633 C103.03346595 397.6098433 113.15875838 397.63835218 123.28413278 397.66143972 C134.81002864 397.68845821 146.33584056 397.73237174 157.86167657 397.77772844 C181.57440559 397.87066347 205.28716093 397.9423036 229 398 C222.03979566 411.92040868 208.00504935 420.99495065 197 432 C131.99 432 66.98 432 0 432 C0 289.44 0 146.88 0 0 Z " fill="#000000" transform="translate(0,0)"/>
<path d="M0 0 C7.51670818 3.47051515 13.17736525 10.06740544 19 15.8125 C19.58837646 16.38782471 20.17675293 16.96314941 20.78295898 17.5559082 C22.22846935 18.99843242 23.61940203 20.49523239 25 22 C25 22.66 25 23.32 25 24 C25.58979141 24.26447433 26.17958282 24.52894867 26.7872467 24.80143738 C29.08032056 26.04350653 30.57278426 27.33126897 32.40405273 29.17700195 C33.04829697 29.82139725 33.6925412 30.46579254 34.35630798 31.12971497 C35.04181229 31.82554184 35.72731659 32.52136871 36.43359375 33.23828125 C37.14854507 33.95606247 37.8634964 34.67384369 38.60011292 35.41337585 C40.88398338 37.70842779 43.16081433 40.01032276 45.4375 42.3125 C46.96633485 43.85137061 48.49562674 45.3897873 50.02539062 46.92773438 C52.84195943 49.76062043 55.65586154 52.59609701 58.46655273 55.43481445 C61.30261645 58.29838582 64.14895156 61.15133538 67 64 C68.46291853 65.46766509 69.92552748 66.93563876 71.38793945 68.40380859 C75.52850003 72.56038039 79.67127274 76.71473829 83.81567097 80.86748314 C86.31163681 83.36866176 88.80665845 85.87076746 91.29956055 88.375 C94.19297592 91.28147225 97.09053233 94.18378573 99.98828125 97.0859375 C101.31367668 98.41907486 101.31367668 98.41907486 102.66584778 99.77914429 C107.09361377 104.20730646 111.55502724 108.4631533 116.40666199 112.42666626 C118.15067417 114.14878246 118.94913439 115.80659641 120 118 C120.5775 118.28875 121.155 118.5775 121.75 118.875 C125.17396275 120.58698137 127.36150919 123.24157779 130 126 C133.88280691 124.41093477 136.3183269 121.91065297 139.24609375 118.94921875 C139.98558006 118.20548759 139.98558006 118.20548759 140.74000549 117.44673157 C142.31061396 115.86497269 143.87413286 114.27641315 145.4375 112.6875 C146.48456052 111.63039807 147.53208213 110.57375264 148.58007812 109.51757812 C150.51778796 107.56359322 152.45218063 105.60653087 154.38452148 103.6472168 C156.91304077 101.08801446 159.45487828 98.54267553 162 96 C162.96873047 95.01386719 162.96873047 95.01386719 163.95703125 94.0078125 C164.56933594 93.38648438 165.18164062 92.76515625 165.8125 92.125 C166.41707031 91.50882812 167.02164063 90.89265625 167.64453125 90.2578125 C169.53331001 88.44734131 171.44726658 86.75987114 173.4375 85.06640625 C179.67197262 79.64915407 185.38504683 73.68294118 191.1875 67.8125 C193.4905358 65.48272543 195.79697088 63.15639233 198.10546875 60.83203125 C198.62328415 60.30591751 199.14109955 59.77980377 199.67460632 59.23774719 C202.63215603 56.26043489 205.7036774 53.59225369 209 51 C210.31152095 49.37163263 210.31152095 49.37163263 211.3125 47.6875 C213.73624786 44.12762033 216.59801178 41.58221181 219.8828125 38.82421875 C223.4519329 35.74898032 226.70059267 32.35867812 230 29 C232.62404654 26.36729324 235.25719229 23.7442817 237.90234375 21.1328125 C244.43103177 14.71833423 244.43103177 14.71833423 250.5 7.875 C252.77991392 5.25309899 253.9599881 4.35254767 257 3 C261.02183146 6.89843911 265.02711435 10.81287016 269.01782227 14.74316406 C270.37828014 16.07844331 271.74318691 17.40920518 273.11254883 18.73535156 C275.07773993 20.64004239 277.02647032 22.5602932 278.97265625 24.484375 C279.59028336 25.07619568 280.20791046 25.66801636 280.84425354 26.277771 C282.54321289 27.97558594 282.54321289 27.97558594 285 31 C284.56792828 35.54593329 281.3630799 37.99786802 278.2421875 41.015625 C277.66091095 41.59028503 277.0796344 42.16494507 276.48074341 42.75701904 C274.61912782 44.59524961 272.74769457 46.42306315 270.875 48.25 C268.43110891 50.6472129 265.99151728 53.04873533 263.5546875 55.453125 C262.96910065 56.03012146 262.38351379 56.60711792 261.78018188 57.20159912 C258.15364224 60.7952757 254.69578048 64.47625745 251.39208984 68.37207031 C249.33319371 70.77977277 247.11780446 73.01440713 244.875 75.25 C243.66457031 76.46429688 243.66457031 76.46429688 242.4296875 77.703125 C240 80 240 80 237.6328125 81.796875 C235.46832828 83.60810512 233.83804887 85.27248254 232.02734375 87.40234375 C227.11145846 93.14529981 221.72720715 98.42201483 216.37573242 103.75463867 C214.56639067 105.55862085 212.76245681 107.36788665 210.95898438 109.17773438 C209.78677878 110.34927905 208.61426296 111.52051342 207.44140625 112.69140625 C206.91406387 113.22077286 206.3867215 113.75013947 205.84339905 114.29554749 C202.35761586 117.76009266 198.72641608 121.00497155 195.01283264 124.22291565 C189.64209598 128.96461741 184.61072686 134.08378912 179.52416992 139.12573242 C178.12220776 140.51096355 176.71488034 141.8907837 175.30249023 143.26538086 C173.25075353 145.26269484 171.215647 147.27565642 169.18359375 149.29296875 C168.22917641 150.21338203 168.22917641 150.21338203 167.25547791 151.15238953 C165.30393209 153.05467822 165.30393209 153.05467822 163 156 C163.27984428 159.16457076 164.43552417 160.80847486 166.64868164 163.00512695 C167.20338638 163.56283279 167.75809113 164.12053864 168.3296051 164.69514465 C168.93368698 165.28687973 169.53776886 165.87861481 170.16015625 166.48828125 C171.0951017 167.42041695 171.0951017 167.42041695 172.04893494 168.37138367 C173.37117248 169.68689914 174.69700272 170.99881192 176.02612305 172.30737305 C178.03745389 174.28783825 180.03819394 176.27849677 182.03710938 178.27148438 C187.56289879 183.76305717 193.08433981 189.19004738 199.02124023 194.23950195 C203.71728649 198.41756358 208.07582038 202.97508138 212.5 207.4375 C213.52320139 208.4657298 214.54663733 209.49372626 215.5703125 210.52148438 C218.04957999 213.01164338 220.52567538 215.50492833 223 218 C225.90543872 216.68623083 227.96661059 215.27943508 230.20800781 213.01904297 C230.80832825 212.41857147 231.40864868 211.81809998 232.02716064 211.19943237 C232.66272888 210.55354156 233.29829712 209.90765076 233.953125 209.2421875 C234.61334656 208.57913605 235.27356812 207.91608459 235.95379639 207.23294067 C238.05727824 205.11828168 240.15369142 202.99676788 242.25 200.875 C243.67662261 199.43834443 245.10370072 198.00214102 246.53125 196.56640625 C250.02613661 193.04949196 253.51470062 189.52641453 257 186 C258.27190441 186.94359829 259.54237795 187.88912547 260.81225586 188.83544922 C261.51990585 189.36177948 262.22755585 189.88810974 262.95664978 190.4303894 C265.65803607 192.50547399 268.1231631 194.74897413 270.5625 197.125 C271.86380859 198.36636719 271.86380859 198.36636719 273.19140625 199.6328125 C275 202 275 202 274.77658272 203.96227646 C273.42782607 207.50136265 270.50614936 209.87225325 267.84716797 212.47753906 C267.20477676 213.11876205 266.56238556 213.75998505 265.90052795 214.42063904 C263.77129346 216.54267648 261.63173869 218.65399413 259.4921875 220.765625 C258.00750345 222.24216981 256.52355575 223.71945537 255.04031372 225.19744873 C251.1268405 229.09378277 247.20490154 232.98147838 243.28070068 236.86700439 C237.01904114 243.0695662 230.76981238 249.28464337 224.52139664 255.50054169 C222.34456602 257.66350061 220.16390854 259.82254039 217.9826355 261.98101807 C216.63140091 263.32221649 215.28025115 264.66350038 213.92919922 266.00488281 C213.32943771 266.59633591 212.72967621 267.187789 212.11174011 267.79716492 C208.41916595 271.47062291 204.94001439 275.27798089 201.54454136 279.22793961 C199.44221122 281.63995399 197.21077446 283.90171426 194.94140625 286.15625 C194.06162109 287.0328125 193.18183594 287.909375 192.27539062 288.8125 C191.38013672 289.699375 190.48488281 290.58625 189.5625 291.5 C188.64017578 292.4178125 187.71785156 293.335625 186.76757812 294.28125 C184.51400101 296.52315055 182.25810925 298.762666 180 301 C176.84795019 299.60652624 174.73828227 297.97514921 172.328125 295.5234375 C171.66425781 294.853125 171.00039063 294.1828125 170.31640625 293.4921875 C169.29353516 292.44417969 169.29353516 292.44417969 168.25 291.375 C167.55261719 290.66859375 166.85523438 289.9621875 166.13671875 289.234375 C164.41987512 287.49401297 162.70788168 285.74915019 161 284 C162.29539616 281.1364444 163.64364291 279.12272159 165.9050293 276.94726562 C166.48870773 276.37987671 167.07238617 275.81248779 167.67375183 275.22790527 C168.30090591 274.62675903 168.92806 274.02561279 169.57421875 273.40625 C170.89429914 272.116314 172.21394784 270.8259361 173.53320312 269.53515625 C175.61548225 267.5088219 177.70139603 265.48663032 179.79516602 263.47216797 C181.81591188 261.52370163 183.82089463 259.56010184 185.82421875 257.59375 C186.45744553 256.99260376 187.0906723 256.39145752 187.74308777 255.77209473 C189.69285738 253.90383486 189.69285738 253.90383486 192 251 C191.95646959 248.92460679 191.95646959 248.92460679 191 247 C189.00334402 245.32932867 187.00348966 243.66247014 185 242 C185 241.01 185 240.02 185 239 C184.40993164 238.73662842 183.81986328 238.47325684 183.21191406 238.2019043 C180.90427185 236.94798348 179.43272606 235.64804739 177.609375 233.76953125 C176.66771484 232.81143555 176.66771484 232.81143555 175.70703125 231.83398438 C175.06121094 231.16689453 174.41539062 230.49980469 173.75 229.8125 C170.06045031 226.02109157 166.39153416 222.28113551 162.359375 218.8515625 C156.07560403 213.44172896 150.33802922 207.44277601 144.5 201.5625 C143.28408886 200.3415631 142.06794484 199.12085808 140.8515625 197.90039062 C137.89835034 194.93625987 134.94830602 191.96901042 132 189 C129.06936481 190.31723754 127.05284056 191.72148646 124.8359375 194.0390625 C123.98902344 194.90917969 123.98902344 194.90917969 123.125 195.796875 C122.5475 196.40015625 121.97 197.0034375 121.375 197.625 C120.22082483 198.83001989 119.06218537 200.03078487 117.8984375 201.2265625 C117.38974121 201.75846191 116.88104492 202.29036133 116.35693359 202.83837891 C115 204 115 204 113 204 C112.690625 204.61875 112.38125 205.2375 112.0625 205.875 C111.375 207.25 110.6875 208.625 110 210 C109.01 210 108.02 210 107 210 C106.74259033 210.58338135 106.48518066 211.1667627 106.2199707 211.76782227 C104.89466755 214.19272655 103.44772789 215.78039329 101.48046875 217.71484375 C100.44116211 218.74448242 100.44116211 218.74448242 99.38085938 219.79492188 C98.65705078 220.50197266 97.93324219 221.20902344 97.1875 221.9375 C96.11918945 222.99227539 96.11918945 222.99227539 95.02929688 224.06835938 C93.64171704 225.4379687 92.25228421 226.80570372 90.86083984 228.17138672 C88.55926176 230.43310541 86.27785518 232.71441017 84 235 C83.27167969 235.72574219 82.54335937 236.45148438 81.79296875 237.19921875 C79.32744358 239.67164049 76.87548815 242.15646314 74.42578125 244.64453125 C72.72148124 246.36731322 71.01705072 248.08996608 69.3125 249.8125 C68.44560547 250.69615234 67.57871094 251.57980469 66.68554688 252.49023438 C65.85732422 253.32490234 65.02910156 254.15957031 64.17578125 255.01953125 C63.04523315 256.16578979 63.04523315 256.16578979 61.8918457 257.33520508 C60 259 60 259 58 259 C57.7525 259.61875 57.505 260.2375 57.25 260.875 C55.76259631 263.40358627 54.56321991 263.71839004 52 265 C51.67 265.66 51.34 266.32 51 267 C49.73577236 269.52845528 48.47154472 269.76422764 46 271 C45.73316406 271.57492187 45.46632813 272.14984375 45.19140625 272.7421875 C43.59091204 275.77525521 41.40108918 277.75002914 38.9375 280.125 C35.53546517 283.24105765 35.53546517 283.24105765 33 287 C32.01 287 31.02 287 30 287 C29.76877441 287.55719727 29.53754883 288.11439453 29.29931641 288.68847656 C27.65365415 291.6161598 25.60024749 293.62385188 23.2109375 295.984375 C22.51600693 296.67506073 22.51600693 296.67506073 21.80703735 297.37969971 C20.33434102 298.84125078 18.85482597 300.29567168 17.375 301.75 C16.37193678 302.74302611 15.36932743 303.73651089 14.3671875 304.73046875 C11.91669165 307.15897941 9.4600333 309.58114675 7 312 C3.20752477 310.24407595 0.89421996 308.03540142 -2 305 C-2.76441406 304.24460937 -3.52882813 303.48921875 -4.31640625 302.7109375 C-7.62686552 299.3667472 -10.76401211 295.88501582 -13.89453125 292.37304688 C-16.72113492 289.24785831 -19.63823416 286.53959484 -23 284 C-21.49156562 280.46174096 -19.43802076 278.19550006 -16.72143555 275.49438477 C-15.83679123 274.60989151 -14.95214691 273.72539825 -14.04069519 272.81410217 C-13.07280583 271.85643297 -12.10481106 270.89887029 -11.13671875 269.94140625 C-10.14220677 268.95062915 -9.14813895 267.95940605 -8.15449524 266.96775818 C-5.53866722 264.35955558 -2.91689653 261.75740736 -0.29382324 259.15649414 C2.36172573 256.52132746 5.01170312 253.88057169 7.66210938 251.24023438 C12.33822563 246.58323787 17.01921739 241.93120018 21.70381165 237.2827301 C23.32767005 235.66838934 24.94874926 234.05125074 26.56785583 232.43214417 C28.56706152 230.43293848 30.57129089 228.43925661 32.58105469 226.45068359 C36.19924363 222.86804104 39.81136165 219.27934421 43.42138672 215.68847656 C44.979191 214.1407985 46.53877551 212.59491036 48.10009766 211.05078125 C50.35788395 208.81717028 52.60922291 206.57723568 54.859375 204.3359375 C55.56036316 203.64527191 56.26135132 202.95460632 56.98358154 202.24301147 C57.62805237 201.59869171 58.27252319 200.95437195 58.93652344 200.29052734 C59.50546326 199.72602875 60.07440308 199.16153015 60.6605835 198.57992554 C62.23165434 196.92547918 62.23165434 196.92547918 63 194 C64.33569336 192.67456055 64.33569336 192.67456055 66.15234375 191.19921875 C72.26285441 186.00821784 77.92814115 180.36828132 83.62133789 174.72875977 C84.92630285 173.44053564 86.2366324 172.15772543 87.55200195 170.88012695 C89.46475146 169.02180431 91.36083001 167.14786531 93.25390625 165.26953125 C94.14270226 164.4147393 94.14270226 164.4147393 95.04945374 163.54267883 C96.86940222 161.77166937 96.86940222 161.77166937 99 159 C98.55341049 155.52277135 97.28111184 153.92214497 94.796875 151.50390625 C94.14589844 150.86259766 93.49492187 150.22128906 92.82421875 149.56054688 C92.13972656 148.90119141 91.45523438 148.24183594 90.75 147.5625 C90.08097656 146.90701172 89.41195312 146.25152344 88.72265625 145.57617188 C87.40791647 144.28855345 86.09049126 143.00367073 84.77026367 141.72167969 C81.86303842 138.89424175 79.00731686 136.01650333 76.15283203 133.13598633 C73.99959936 130.96378579 71.84359002 128.7943641 69.6875 126.625 C68.6056543 125.53058594 68.6056543 125.53058594 67.50195312 124.4140625 C66.78330078 123.6921875 66.06464844 122.9703125 65.32421875 122.2265625 C64.3664856 121.26097412 64.3664856 121.26097412 63.3894043 120.27587891 C61.41233094 118.39274027 59.40101416 116.61144765 57.33177185 114.83276367 C53.1509564 111.18185229 49.21056992 107.33867579 45.30224609 103.39990234 C44.57919785 102.67539383 43.8561496 101.95088531 43.1111908 101.204422 C41.55562305 99.64507482 40.00121061 98.08457442 38.4478569 96.5230217 C35.98640993 94.04871651 33.52176979 91.57763162 31.05630493 89.10733032 C25.82638232 83.86602893 20.60040677 78.62080304 15.375 73.375 C9.30963301 67.28599287 3.24263773 61.19862687 -2.82859421 55.11546707 C-5.25128751 52.68631323 -7.67093878 50.25415716 -10.09048462 47.8218689 C-11.58051944 46.32820045 -13.07069546 44.83467284 -14.56103516 43.34130859 C-15.22820053 42.6689769 -15.89536591 41.9966452 -16.58274841 41.30393982 C-20.23822989 37.64804783 -23.97251792 34.2428239 -28 31 C-26.43275643 26.93466518 -23.51456431 24.53812224 -20.3125 21.75 C-15.48406385 17.44579818 -11.16347453 12.95651729 -7 8 C-4.6875 5.5 -4.6875 5.5 -3 4 C-2.34 4 -1.68 4 -1 4 C-0.67 2.68 -0.34 1.36 0 0 Z " fill="#010101" transform="translate(86,62)"/>
<path d="M0 0 C0 55.77 0 111.54 0 169 C-55.44 169 -110.88 169 -168 169 C-164.23990298 164.61322014 -160.63728634 160.51382826 -156.5776825 156.4641571 C-156.06690102 155.95322677 -155.55611954 155.44229643 -155.02985984 154.91588336 C-153.33957335 153.22628428 -151.64575401 151.54027431 -149.9519043 149.85424805 C-148.73075934 148.63502466 -147.50984364 147.41557163 -146.28913879 146.19590759 C-143.67148908 143.58140636 -141.05229716 140.9684637 -138.43189049 138.35672569 C-134.29076971 134.22916716 -130.15350169 130.09776121 -126.01679993 125.96577454 C-117.2433289 117.20338017 -108.46562228 108.44523439 -99.6875 99.6875 C-90.19294466 90.21496503 -80.69912334 80.74170118 -71.21015292 71.26357108 C-67.09477783 67.15318703 -62.97697485 63.04525532 -58.85731637 58.93916452 C-56.30236275 56.3916473 -53.74946202 53.84208059 -51.19712639 51.29194069 C-50.00996847 50.1066613 -48.82194327 48.92224987 -47.63300705 47.73875427 C-46.01550685 46.12842605 -44.401078 44.51508096 -42.78739929 42.90092468 C-41.88169536 41.99744136 -40.97599142 41.09395803 -40.04284191 40.16309643 C-37.96587898 38.17257904 -37.96587898 38.17257904 -37 36 C-36.34 36 -35.68 36 -35 36 C-34.73494156 35.40995178 -34.46988312 34.81990356 -34.1967926 34.2119751 C-32.961827 31.92944665 -31.68306145 30.4354888 -29.85131836 28.60839844 C-29.21403305 27.9680365 -28.57674774 27.32767456 -27.92015076 26.66790771 C-27.23364944 25.98859192 -26.54714813 25.30927612 -25.83984375 24.609375 C-25.13477188 23.90476135 -24.42970001 23.20014771 -23.70326233 22.47418213 C-22.21526641 20.98920295 -20.72484513 19.50665063 -19.23217773 18.02636719 C-16.93739001 15.74989089 -14.65076006 13.46545876 -12.36523438 11.1796875 C-10.91974304 9.73910936 -9.47379527 8.29898904 -8.02734375 6.859375 C-7.33881821 6.17196228 -6.65029266 5.48454956 -5.94090271 4.77630615 C-5.30676956 4.14855286 -4.67263641 3.52079956 -4.01928711 2.87402344 C-3.45906357 2.31761169 -2.89884003 1.76119995 -2.32164001 1.18792725 C-1 0 -1 0 0 0 Z " fill="#01966E" transform="translate(432,263)"/>
<path d="M0 0 C1.03246759 10.44600494 1.7305856 20.88636748 2.125 31.375 C2.15395733 32.14196575 2.18291466 32.9089315 2.21274948 33.69913864 C2.81410071 51.74843454 2.96002566 67.35259218 -9.78527832 81.43548584 C-16.18725186 87.87020991 -23.2856662 93.58364995 -30.76538086 98.71508789 C-34.00921306 100.62466156 -34.00921306 100.62466156 -35 103 C-35.66 103 -36.32 103 -37 103 C-37.2333307 103.54907139 -37.4666614 104.09814278 -37.70706272 104.66385269 C-39.35052897 107.63335425 -41.40105704 109.86664734 -43.68699646 112.37835693 C-44.16821065 112.90855289 -44.64942485 113.43874884 -45.14522129 113.98501134 C-46.76016405 115.76011799 -48.38246104 117.52829916 -50.00561523 119.29589844 C-50.57345608 119.91706354 -51.14129692 120.53822865 -51.72634506 121.17821693 C-63.03154332 133.54190832 -74.55404571 145.69757511 -86.15138149 157.78705978 C-93.51572831 165.47205094 -100.80531329 173.20640772 -107.94067383 181.10498047 C-159.51397457 238.08399076 -159.51397457 238.08399076 -189.61577189 240.1794095 C-204.82937376 240.92676102 -220.12283878 239.08906198 -235 236 C-230.38393029 230.45696473 -225.4674175 225.3363195 -220.35180664 220.25415039 C-219.50386032 219.40766434 -218.655914 218.56117828 -217.78227234 217.68904114 C-215.47404712 215.38559118 -213.16364589 213.08435021 -210.8523972 210.78393483 C-208.42189754 208.3634831 -205.99469016 205.93973497 -203.56724548 203.51622009 C-196.87909767 196.84006825 -190.1859343 190.16895222 -183.49269867 183.49790192 C-177.3562153 177.38165826 -171.22082747 171.26432598 -165.08949751 165.14291567 C-162.67919979 162.73675934 -160.2678465 160.33168129 -157.85396004 157.92912483 C-155.15957216 155.24675733 -152.46828302 152.56131512 -149.77758789 149.87524414 C-148.59518021 148.70058594 -148.59518021 148.70058594 -147.3888855 147.50219727 C-144.01801651 144.13164879 -140.72961628 140.74384266 -137.62522888 137.12522888 C-133.08985645 131.86394353 -128.14067158 127.01698245 -123.21875 122.12109375 C-122.14512119 121.04938803 -121.07172273 119.97745152 -119.99853516 118.90530396 C-117.70122402 116.61113509 -115.40237339 114.31852449 -113.10229492 112.02713013 C-109.45929461 108.39774218 -105.82019199 104.76446259 -102.18164062 101.13061523 C-93.8016242 92.76260119 -85.41658585 84.39962523 -77.03149414 76.03669739 C-69.34143888 68.36686468 -61.65246906 60.69595198 -53.96755219 53.02097034 C-50.3564704 49.41484616 -46.74297062 45.81116849 -43.12754822 42.20939636 C-40.87272878 39.96207884 -38.62002135 37.71265311 -36.36785889 35.46267319 C-35.32997265 34.42664602 -34.29122893 33.39147699 -33.25152588 32.3572731 C-28.14481113 27.27670208 -23.13130629 22.17816646 -18.46159363 16.68988037 C-16.04261722 13.89308332 -13.43621263 11.29074153 -10.8125 8.6875 C-10.30525391 8.17638672 -9.79800781 7.66527344 -9.27539062 7.13867188 C-2.11815263 0 -2.11815263 0 0 0 Z " fill="#FEFEFE" transform="translate(432,196)"/>
<path d="M0 0 C0 34.32 0 68.64 0 104 C-34.32 104 -68.64 104 -104 104 C-97.24974298 96.12470015 -97.24974298 96.12470015 -93.60270691 92.47572327 C-92.77973114 91.64992767 -91.95675537 90.82413208 -91.10884094 89.97331238 C-90.22496201 89.09145767 -89.34108307 88.20960297 -88.43041992 87.30102539 C-87.47529816 86.34454607 -86.52038871 85.3878547 -85.56567383 84.43096924 C-82.99192197 81.85268893 -80.41505415 79.27754478 -77.83744597 76.70312047 C-75.13649118 74.00470868 -72.43798967 71.30384525 -69.73908997 68.6033783 C-65.21433019 64.07680436 -60.68747695 59.55233207 -56.15942383 55.02905273 C-50.91897707 49.79406691 -45.68216909 44.55546172 -40.44719809 39.31500059 C-35.94872325 34.81199665 -31.44831388 30.31093311 -26.94626313 25.8115043 C-24.25858471 23.12538724 -21.57159223 20.43859337 -18.886343 17.75004768 C-16.36790706 15.22873532 -13.84706098 12.70985835 -11.32428741 10.19288635 C-9.95236065 8.82292352 -8.58291019 7.45048226 -7.21351624 6.07798767 C-6.00020126 4.86890244 -6.00020126 4.86890244 -4.76237488 3.63539124 C-4.05577823 2.92917161 -3.34918158 2.22295198 -2.6211729 1.49533176 C-1 0 -1 0 0 0 Z " fill="#D6210B" transform="translate(432,328)"/>
<path d="M0 0 C62.37 0 124.74 0 189 0 C188.34 1.32 187.68 2.64 187 4 C186.67 3.01 186.34 2.02 186 1 C124.62 1 63.24 1 0 1 C0 0.67 0 0.34 0 0 Z " fill="#233331" transform="translate(40,398)"/>
<path d="M0 0 C1.32 0.66 2.64 1.32 4 2 C2 4 2 4 0.06616211 4.93945312 C-2.10697578 6.05490994 -3.39023648 7.2001 -5.05859375 8.96875 C-5.60966797 9.53980469 -6.16074219 10.11085938 -6.72851562 10.69921875 C-7.86598919 11.89779089 -9.0014159 13.09830893 -10.13476562 14.30078125 C-13.21678697 17.48709503 -15.61149903 19.75317356 -20 21 C-17.87137305 16.60970692 -14.92793097 14.05757943 -11.2734375 10.98046875 C-7.31258149 7.53003233 -3.67415302 3.75069788 0 0 Z " fill="#7AD2D0" transform="translate(216,250)"/>
<path d="M0 0 C0.99 0.33 1.98 0.66 3 1 C2.01 1.99 1.02 2.98 0 4 C-0.33 3.34 -0.66 2.68 -1 2 C-0.67 1.34 -0.34 0.68 0 0 Z M-1 4 C-2.13271712 7.39815137 -3.1909314 8.28644916 -5.875 10.5625 C-6.92300781 11.46162109 -6.92300781 11.46162109 -7.9921875 12.37890625 C-10 14 -10 14 -13 16 C-11.53033642 12.60140297 -9.61962486 10.35036291 -7 7.75 C-6.29875 7.04359375 -5.5975 6.3371875 -4.875 5.609375 C-3 4 -3 4 -1 4 Z M-24 25 C-22 26 -22 26 -22 26 Z " fill="#16211F" transform="translate(86,62)"/>
<path d="M0 0 C0.66 0 1.32 0 2 0 C3.38249511 1.86680868 4.68203634 3.79549792 5.9375 5.75 C8.19965201 9.25105021 10.44729391 12.70308806 13 16 C7.24307904 13.45103931 3.5819882 8.79159096 1.125 3.0625 C0.75375 2.051875 0.3825 1.04125 0 0 Z " fill="#070808" transform="translate(2,407)"/>
<path d="M0 0 C3.13522405 0.29590879 3.98325289 0.98092259 6.10546875 3.3984375 C6.79253906 4.38070313 7.47960937 5.36296875 8.1875 6.375 C9.22970703 7.84066406 9.22970703 7.84066406 10.29296875 9.3359375 C12 12 12 12 13 15 C12.34 15 11.68 15 11 15 C9.76564939 13.23289901 8.61073584 11.40980432 7.5 9.5625 C5.37758703 5.62163235 5.37758703 5.62163235 2 3 C2 2.34 2 1.68 2 1 C1.34 0.67 0.68 0.34 0 0 Z " fill="#070808" transform="translate(418,11)"/>
<path d="M0 0 C0.99 0.495 0.99 0.495 2 1 C1.01 1.495 1.01 1.495 0 2 C0 1.34 0 0.68 0 0 Z M-14 14 C-13.34 14.33 -12.68 14.66 -12 15 C-13.65 16.32 -15.3 17.64 -17 19 C-17.66 18.67 -18.32 18.34 -19 18 C-17 15 -17 15 -14 14 Z " fill="#83E8E5" transform="translate(133,334)"/>
<path d="M0 0 C0 3 0 3 -1.96875 5.26171875 C-2.8040625 6.06222656 -3.639375 6.86273438 -4.5 7.6875 C-5.3353125 8.49574219 -6.170625 9.30398437 -7.03125 10.13671875 C-7.6809375 10.75160156 -8.330625 11.36648437 -9 12 C-9.66 11.67 -10.32 11.34 -11 11 C-9.54540569 9.35086118 -8.08620743 7.70578218 -6.625 6.0625 C-5.81289063 5.14597656 -5.00078125 4.22945312 -4.1640625 3.28515625 C-2 1 -2 1 0 0 Z " fill="#82E0DE" transform="translate(326,141)"/>
<path d="M0 0 C1.32 0 2.64 0 4 0 C4 0.99 4 1.98 4 3 C2.02 3.66 0.04 4.32 -2 5 C-2 4.01 -2 3.02 -2 2 C-1.34 2 -0.68 2 0 2 C0 1.34 0 0.68 0 0 Z " fill="#050707" transform="translate(30,0)"/>
</svg>
