<svg version="1.1" id="Layer_1" xmlns="http://www.w3.org/2000/svg" xmlns:xlink="http://www.w3.org/1999/xlink" x="0px" y="0px"
	 width="100%" viewBox="0 0 583 580" enable-background="new 0 0 583 580" xml:space="preserve">
<path fill="#010101" opacity="1.000000" stroke="none" 
	d="
M326.000000,581.000000 
	C217.333328,581.000000 109.166664,581.000000 1.000000,581.000000 
	C1.000000,387.666656 1.000000,194.333328 1.000000,1.000000 
	C195.333328,1.000000 389.666656,1.000000 584.000000,1.000000 
	C584.000000,194.333328 584.000000,387.666656 584.000000,581.000000 
	C498.166656,581.000000 412.333344,581.000000 326.000000,581.000000 
M379.500031,48.885998 
	C272.673187,48.885998 165.846359,48.885086 59.019535,48.887810 
	C50.846222,48.888020 46.889278,52.789787 46.889065,60.876205 
	C46.884937,215.033676 46.884903,369.191162 46.889252,523.348633 
	C46.889473,531.121155 50.906342,535.109924 58.744419,535.110168 
	C214.235153,535.115173 369.725891,535.114746 525.216614,535.111206 
	C533.065308,535.111023 537.085388,531.138550 537.112610,523.387695 
	C537.447815,427.972015 537.873657,332.556549 538.054932,237.140594 
	C538.106689,209.888275 537.298950,182.635391 537.152832,155.381332 
	C536.984863,124.050774 537.115540,92.718620 537.112854,61.387154 
	C537.112122,52.636143 533.326721,48.887302 524.491455,48.886940 
	C476.494324,48.884964 428.497192,48.885998 379.500031,48.885998 
z"/>
<path fill="#FFFFFF" opacity="1.000000" stroke="none" 
	d="
M380.000061,48.885998 
	C428.497192,48.885998 476.494324,48.884964 524.491455,48.886940 
	C533.326721,48.887302 537.112122,52.636143 537.112854,61.387154 
	C537.115540,92.718620 536.984863,124.050774 537.152832,155.381332 
	C537.298950,182.635391 538.106689,209.888275 538.054932,237.140594 
	C537.873657,332.556549 537.447815,427.972015 537.112610,523.387695 
	C537.085388,531.138550 533.065308,535.111023 525.216614,535.111206 
	C369.725891,535.114746 214.235153,535.115173 58.744419,535.110168 
	C50.906342,535.109924 46.889473,531.121155 46.889252,523.348633 
	C46.884903,369.191162 46.884937,215.033676 46.889065,60.876205 
	C46.889278,52.789787 50.846222,48.888020 59.019535,48.887810 
	C165.846359,48.885086 272.673187,48.885998 380.000061,48.885998 
M451.035889,178.470551 
	C456.954926,172.500839 462.859680,166.516846 468.796356,160.564713 
	C478.446747,150.889206 488.095520,141.211807 497.800568,131.591278 
	C499.626312,129.781433 501.074097,128.071671 498.767822,125.737289 
	C486.250488,113.067444 473.708557,100.421875 461.240204,87.833656 
	C404.677612,143.911484 348.597626,199.510803 292.307434,255.318542 
	C234.331268,197.929520 176.498657,140.682602 119.992966,84.749153 
	C105.655899,98.534996 92.078690,111.590202 78.665833,124.487358 
	C136.133484,181.403458 193.812286,238.528671 251.760513,295.920715 
	C195.881805,352.178345 140.402740,408.033600 84.977158,463.835052 
	C98.054352,477.039398 111.507027,490.622864 125.220985,504.470154 
	C181.306335,448.329254 236.943970,392.636536 292.824615,336.700531 
	C320.993439,364.283966 348.725372,391.439575 376.931488,419.059479 
	C361.552032,434.384491 346.607758,449.275940 332.178101,463.654510 
	C343.695282,475.755463 355.012909,487.646790 365.866333,499.050323 
	C381.831940,483.779114 397.081757,469.192566 413.270020,453.708344 
	C427.269806,468.310608 441.787628,483.453217 455.184052,497.426147 
	C468.859070,484.435822 481.812164,472.215637 494.578430,459.803253 
	C495.378876,459.024994 495.192535,456.532990 494.608398,455.219269 
	C493.981445,453.809265 492.319092,452.871948 491.147491,451.689789 
	C478.389130,438.817078 465.638397,425.936737 452.682404,412.853271 
	C453.838043,411.637970 454.933868,410.434662 456.083130,409.284760 
	C468.570587,396.789795 481.003693,384.239349 493.606323,371.861603 
	C496.563538,368.957123 496.510406,366.874115 493.548889,364.082611 
	C488.094116,358.940887 482.930389,353.491943 477.575134,348.242645 
	C472.525421,343.292816 467.385315,338.435211 462.371857,333.620514 
	C447.236755,348.748047 432.516327,363.461151 417.682983,378.287109 
	C389.376740,350.835480 361.349243,323.654205 333.500641,296.646423 
	C372.905731,257.034454 411.723785,218.012619 451.035889,178.470551 
z"/>
<path fill="#010101" opacity="1.000000" stroke="none" 
	d="
M450.788879,178.730652 
	C411.723785,218.012619 372.905731,257.034454 333.500641,296.646423 
	C361.349243,323.654205 389.376740,350.835480 417.682983,378.287109 
	C432.516327,363.461151 447.236755,348.748047 462.371857,333.620514 
	C467.385315,338.435211 472.525421,343.292816 477.575134,348.242645 
	C482.930389,353.491943 488.094116,358.940887 493.548889,364.082611 
	C496.510406,366.874115 496.563538,368.957123 493.606323,371.861603 
	C481.003693,384.239349 468.570587,396.789795 456.083130,409.284760 
	C454.933868,410.434662 453.838043,411.637970 452.682404,412.853271 
	C465.638397,425.936737 478.389130,438.817078 491.147491,451.689789 
	C492.319092,452.871948 493.981445,453.809265 494.608398,455.219269 
	C495.192535,456.532990 495.378876,459.024994 494.578430,459.803253 
	C481.812164,472.215637 468.859070,484.435822 455.184052,497.426147 
	C441.787628,483.453217 427.269806,468.310608 413.270020,453.708344 
	C397.081757,469.192566 381.831940,483.779114 365.866333,499.050323 
	C355.012909,487.646790 343.695282,475.755463 332.178101,463.654510 
	C346.607758,449.275940 361.552032,434.384491 376.931488,419.059479 
	C348.725372,391.439575 320.993439,364.283966 292.824615,336.700531 
	C236.943970,392.636536 181.306335,448.329254 125.220985,504.470154 
	C111.507027,490.622864 98.054352,477.039398 84.977158,463.835052 
	C140.402740,408.033600 195.881805,352.178345 251.760513,295.920715 
	C193.812286,238.528671 136.133484,181.403458 78.665833,124.487358 
	C92.078690,111.590202 105.655899,98.534996 119.992966,84.749153 
	C176.498657,140.682602 234.331268,197.929520 292.307434,255.318542 
	C348.597626,199.510803 404.677612,143.911484 461.240204,87.833656 
	C473.708557,100.421875 486.250488,113.067444 498.767822,125.737289 
	C501.074097,128.071671 499.626312,129.781433 497.800568,131.591278 
	C488.095520,141.211807 478.446747,150.889206 468.796356,160.564713 
	C462.859680,166.516846 456.954926,172.500839 450.788879,178.730652 
z"/>
</svg>